<svg xmlns="http://www.w3.org/2000/svg" version="1.0" width="1500.000000pt" height="1200.000000pt" viewBox="0 0 1500.000000 1200.000000" preserveAspectRatio="xMidYMid meet">

<g transform="translate(0.000000,1200.000000) scale(0.100000,-0.100000)" fill="#e9f2e4" stroke="none">
<path d="M5968 10130 c-80 -5 -103 -11 -136 -32 -64 -43 -72 -72 -66 -234 6 -158 17 -223 45 -259 14 -17 21 -43 23 -87 1 -38 11 -83 25 -113 26 -57 73 -224 66 -235 -2 -4 -38 -10 -78 -13 -93 -7 -240 -55 -332 -109 -124 -73 -202 -145 -332 -308 -99 -124 -132 -158 -163 -170 -112 -44 -154 -135 -121 -260 6 -19 15 -55 21 -80 9 -35 26 -58 76 -105 l64 -60 -12 -67 c-11 -63 -10 -80 20 -230 18 -89 50 -214 72 -278 22 -64 52 -169 65 -234 28 -130 30 -135 94 -191 43 -39 43 -40 38 -94 -7 -70 6 -220 48 -560 70 -555 69 -795 -6 -1231 -56 -327 -99 -477 -249 -880 -173 -464 -203 -583 -205 -822 -1 -128 -5 -161 -18 -175 -21 -24 -53 -156 -68 -276 -9 -75 -10 -109 0 -150 8 -39 9 -66 1 -104 -7 -32 -10 -167 -8 -371 3 -307 4 -322 24 -349 58 -78 239 -176 458 -248 157 -52 262 -69 526 -86 368 -24 653 -11 878 42 115 26 373 102 472 139 166 61 217 99 231 172 4 24 13 200 20 391 12 321 12 351 -4 393 -11 30 -14 52 -8 63 18 33 42 178 44 263 2 86 2 87 -32 122 l-34 35 14 78 c9 48 14 144 13 248 0 271 -31 418 -219 1045 -157 525 -156 519 -162 910 -7 429 6 584 83 988 42 219 54 337 43 399 -10 50 -9 56 16 84 14 17 33 59 42 93 10 33 39 124 66 201 123 356 147 443 147 537 0 36 7 47 79 122 101 105 122 147 129 252 7 118 3 127 -67 157 -33 14 -66 36 -74 49 -8 13 -34 59 -58 102 -108 196 -377 407 -634 498 -75 27 -300 82 -376 93 l-46 6 8 52 c13 81 58 284 81 367 15 51 21 99 20 150 -2 101 -25 233 -46 265 -25 38 -128 83 -217 95 -81 10 -134 10 -281 0z m282 -38 c41 -10 100 -31 130 -48 56 -30 93 -75 75 -93 -6 -5 -73 -19 -149 -30 -77 -12 -142 -24 -145 -27 -9 -10 155 5 229 21 36 7 67 11 70 8 3 -2 5 -62 5 -131 0 -161 -7 -177 -106 -226 -40 -20 -81 -36 -93 -36 -11 0 -28 -5 -36 -10 -34 -22 109 -1 174 26 14 5 18 3 14 -7 -8 -24 -109 -68 -158 -69 -25 0 -52 -5 -60 -10 -30 -20 59 -10 136 14 l76 25 -4 -51 c-4 -32 -21 -80 -49 -136 -56 -109 -55 -105 -32 -98 18 6 21 0 27 -54 4 -34 9 -67 12 -74 3 -7 -7 -27 -21 -45 -16 -19 -22 -31 -14 -31 33 0 -30 -40 -76 -49 -65 -12 -134 1 -199 37 -59 34 -67 54 -64 162 2 71 0 79 -35 135 -45 74 -64 127 -73 204 l-6 60 48 -15 c27 -8 56 -13 64 -11 13 4 -39 31 -133 70 -30 13 -34 20 -45 79 -7 36 -12 115 -12 177 0 107 1 111 22 111 20 0 21 1 3 20 -17 19 -17 21 0 40 24 26 92 59 146 69 76 15 200 12 279 -7z m310 -932 c101 -16 213 -57 353 -127 318 -161 559 -418 593 -633 11 -68 1 -84 -88 -141 -96 -61 -182 -99 -361 -159 -71 -23 -126 -44 -124 -47 9 -9 323 88 394 122 79 37 152 83 196 123 22 21 27 34 27 74 0 51 8 58 35 31 14 -13 16 -29 12 -75 -7 -76 -40 -132 -136 -231 -119 -124 -245 -198 -398 -237 -90 -24 -438 -67 -603 -75 -150 -8 -377 7 -518 35 -117 23 -130 24 -116 11 19 -20 195 -51 350 -61 192 -14 758 3 899 26 66 11 114 27 185 61 52 26 99 49 104 51 9 5 2 -82 -19 -209 -10 -60 -37 -143 -90 -275 -75 -187 -76 -190 -138 -246 -64 -59 -65 -69 -3 -43 33 14 36 14 36 -2 0 -54 -81 -118 -198 -158 -42 -14 -84 -29 -92 -35 -27 -17 -3 -20 46 -5 27 8 51 15 53 15 2 0 1 -57 -2 -127 -4 -106 -16 -176 -67 -411 -55 -253 -64 -309 -44 -289 6 6 89 336 130 516 20 89 25 139 24 216 -1 55 -2 105 -1 112 1 11 110 58 117 50 7 -7 -26 -249 -66 -482 -47 -276 -59 -418 -67 -800 -6 -306 0 -404 38 -580 24 -112 141 -518 225 -780 91 -283 124 -417 144 -594 14 -124 -19 -391 -59 -468 -35 -68 -173 -179 -296 -237 -43 -20 -75 -39 -72 -42 11 -11 131 27 201 63 49 25 93 60 142 110 39 40 73 73 77 73 4 0 14 -14 23 -32 13 -26 16 -50 11 -123 -14 -221 -93 -323 -330 -427 -123 -54 -156 -76 -96 -65 40 8 227 101 317 159 34 23 66 38 70 34 13 -13 14 -234 3 -435 -12 -204 -23 -275 -46 -301 -8 -9 -82 -47 -164 -85 -83 -38 -149 -71 -147 -73 3 -3 184 72 251 104 28 14 27 12 -10 -22 -52 -47 -237 -137 -347 -168 -48 -14 -153 -39 -235 -57 -144 -31 -157 -32 -448 -36 -340 -5 -431 3 -719 63 -195 41 -301 77 -400 136 -141 83 -204 175 -226 327 -13 83 -10 474 3 487 3 4 34 -12 69 -33 78 -50 168 -96 175 -90 5 6 -15 21 -121 90 -44 29 -88 64 -99 78 -54 74 -49 367 6 443 13 17 16 15 46 -34 45 -73 69 -93 208 -166 96 -51 147 -71 240 -94 130 -33 143 -34 143 -20 0 10 -121 51 -223 74 -144 34 -266 124 -332 246 -27 50 -29 63 -28 141 4 196 52 395 209 855 205 601 283 947 315 1394 18 256 8 452 -46 820 -51 350 -65 510 -46 510 6 0 27 -7 46 -14 l35 -15 1 -168 c1 -92 5 -181 9 -198 4 -16 8 -28 9 -25 1 3 2 85 4 182 1 109 6 181 13 188 7 7 45 4 128 -10 65 -11 134 -20 154 -19 l37 1 -35 10 c-121 33 -237 74 -315 112 -121 58 -232 143 -212 162 3 3 67 -11 143 -32 161 -42 234 -57 241 -50 3 2 -15 10 -38 16 -99 25 -199 61 -281 100 l-87 42 -10 49 c-6 27 -33 107 -60 177 -27 70 -55 155 -61 188 -12 62 -11 316 1 329 4 3 63 -14 130 -38 140 -50 400 -120 432 -115 11 2 -38 19 -109 39 -257 73 -361 127 -513 267 -73 67 -75 70 -82 128 -14 111 -11 206 8 226 24 27 33 22 22 -14 -5 -18 -9 -42 -9 -53 0 -42 259 -189 457 -261 135 -49 157 -39 31 15 -165 70 -273 131 -431 242 -13 9 53 145 117 244 64 98 124 159 216 219 69 45 398 197 465 215 70 19 72 18 77 -50 5 -70 11 -77 97 -110 113 -44 281 -22 336 42 21 26 25 41 25 93 0 35 3 66 7 69 9 10 78 8 153 -3z" fill="#e9f2e4"/>
<path d="M6325 9983 c-52 -6 -71 -23 -24 -23 43 0 79 10 79 21 0 5 -3 8 -7 7 -5 -1 -26 -3 -48 -5z" fill="#e9f2e4"/>
<path d="M5870 9955 c28 -16 80 -20 80 -6 0 11 -36 21 -75 21 l-30 -1 25 -14z" fill="#e9f2e4"/>
<path d="M6033 9953 c9 -2 25 -2 35 0 9 3 1 5 -18 5 -19 0 -27 -2 -17 -5z" fill="#e9f2e4"/>
<path d="M5998 9883 c12 -2 32 -2 45 0 12 2 2 4 -23 4 -25 0 -35 -2 -22 -4z" fill="#e9f2e4"/>
<path d="M6325 9859 c-43 -14 -50 -18 -25 -15 19 2 51 11 70 19 48 21 27 19 -45 -4z" fill="#e9f2e4"/>
<path d="M5850 9830 c8 -5 31 -9 50 -9 32 1 33 2 10 9 -14 4 -36 8 -50 9 -20 1 -22 -1 -10 -9z" fill="#e9f2e4"/>
<path d="M6300 9775 c-30 -9 -37 -13 -20 -13 14 0 43 5 65 13 52 17 14 17 -45 0z" fill="#e9f2e4"/>
<path d="M6203 9753 c9 -2 25 -2 35 0 9 3 1 5 -18 5 -19 0 -27 -2 -17 -5z" fill="#e9f2e4"/>
<path d="M6330 9740 c-34 -7 -34 -7 -5 -8 17 0 39 3 50 8 24 10 4 10 -45 0z" fill="#e9f2e4"/>
<path d="M5904 9659 c-3 -5 6 -9 20 -9 31 0 34 6 6 13 -11 3 -23 1 -26 -4z" fill="#e9f2e4"/>
<path d="M6048 9528 c16 -8 28 -8 45 0 19 9 17 11 -23 11 -40 0 -42 -2 -22 -11z" fill="#e9f2e4"/>
<path d="M5930 9491 c8 -5 33 -12 55 -15 l40 -6 -45 15 c-50 16 -73 19 -50 6z" fill="#e9f2e4"/>
<path d="M5968 9453 c7 -3 16 -2 19 1 4 3 -2 6 -13 5 -11 0 -14 -3 -6 -6z" fill="#e9f2e4"/>
<path d="M6260 9330 c-34 -7 -34 -7 -5 -8 17 0 39 3 50 8 24 10 4 10 -45 0z" fill="#e9f2e4"/>
<path d="M6233 9143 c9 -2 23 -2 30 0 6 3 -1 5 -18 5 -16 0 -22 -2 -12 -5z" fill="#e9f2e4"/>
<path d="M6230 8990 c-12 -8 -9 -10 12 -10 15 0 30 5 33 10 8 13 -25 13 -45 0z" fill="#e9f2e4"/>
<path d="M6870 8801 c-42 -4 -7 -7 100 -7 107 -1 151 2 125 7 -44 9 -127 9 -225 0z" fill="#e9f2e4"/>
<path d="M7001 8756 c2 -2 42 -6 89 -9 51 -3 73 -2 55 3 -30 8 -152 13 -144 6z" fill="#e9f2e4"/>
<path d="M7123 8713 c9 -2 25 -2 35 0 9 3 1 5 -18 5 -19 0 -27 -2 -17 -5z" fill="#e9f2e4"/>
<path d="M5300 8670 c-24 -8 -24 -8 5 -8 17 0 41 4 55 8 24 8 24 8 -5 8 -16 0 -41 -4 -55 -8z" fill="#e9f2e4"/>
<path d="M7168 8673 c12 -2 32 -2 45 0 12 2 2 4 -23 4 -25 0 -35 -2 -22 -4z" fill="#e9f2e4"/>
<path d="M5327 8650 c-73 -13 -70 -21 4 -14 73 8 125 23 74 22 -16 0 -52 -4 -78 -8z" fill="#e9f2e4"/>
<path d="M5291 8599 c-125 -21 -47 -20 124 1 l60 7 -65 1 c-36 0 -89 -4 -119 -9z" fill="#e9f2e4"/>
<path d="M5353 8553 c9 -2 23 -2 30 0 6 3 -1 5 -18 5 -16 0 -22 -2 -12 -5z" fill="#e9f2e4"/>
<path d="M5622 8390 c-1 -15 8 -34 23 -48 l25 -24 -12 32 c-7 22 -13 28 -18 19 -6 -8 -10 -3 -13 17 -4 26 -4 26 -5 4z" fill="#e9f2e4"/>
<path d="M5651 8131 c25 -16 285 -73 321 -69 29 3 -54 22 -317 75 -17 4 -17 3 -4 -6z" fill="#e9f2e4"/>
<path d="M6105 8050 c-9 -15 -1 -23 21 -18 15 3 16 4 1 16 -11 9 -17 10 -22 2z" fill="#e9f2e4"/>
<path d="M6810 8040 c-12 -8 -9 -10 13 -10 16 0 26 4 22 10 -8 12 -16 12 -35 0z" fill="#e9f2e4"/>
<path d="M6225 8019 c51 -10 406 -10 465 0 28 5 -61 9 -230 9 -170 0 -260 -3 -235 -9z" fill="#e9f2e4"/>
<path d="M5200 7867 c0 -13 49 -105 60 -112 6 -4 0 15 -14 41 -30 57 -46 82 -46 71z" fill="#e9f2e4"/>
<path d="M5270 7792 c0 -14 8 -18 50 -26 l35 -6 -30 11 c-16 7 -36 16 -42 22 -9 6 -13 6 -13 -1z" fill="#e9f2e4"/>
<path d="M6738 7703 c7 -3 16 -2 19 1 4 3 -2 6 -13 5 -11 0 -14 -3 -6 -6z" fill="#e9f2e4"/>
<path d="M6878 7703 c18 -2 45 -2 60 0 15 2 0 4 -33 4 -33 0 -45 -2 -27 -4z" fill="#e9f2e4"/>
<path d="M7128 7693 c7 -3 16 -2 19 1 4 3 -2 6 -13 5 -11 0 -14 -3 -6 -6z" fill="#e9f2e4"/>
<path d="M7073 7683 c9 -2 23 -2 30 0 6 3 -1 5 -18 5 -16 0 -22 -2 -12 -5z" fill="#e9f2e4"/>
<path d="M7003 7673 c9 -2 25 -2 35 0 9 3 1 5 -18 5 -19 0 -27 -2 -17 -5z" fill="#e9f2e4"/>
<path d="M6760 7659 c-58 -5 -112 -11 -120 -13 -22 -8 237 5 295 14 l50 7 -60 0 c-33 0 -107 -4 -165 -8z" fill="#e9f2e4"/>
<path d="M6860 7620 l-75 -6 70 -1 c39 -1 97 3 130 7 l60 7 -55 0 c-30 0 -89 -3 -130 -7z" fill="#e9f2e4"/>
<path d="M6963 7593 c9 -2 25 -2 35 0 9 3 1 5 -18 5 -19 0 -27 -2 -17 -5z" fill="#e9f2e4"/>
<path d="M6833 7583 c20 -2 54 -2 75 0 20 2 3 4 -38 4 -41 0 -58 -2 -37 -4z" fill="#e9f2e4"/>
<path d="M6698 7573 c7 -3 16 -2 19 1 4 3 -2 6 -13 5 -11 0 -14 -3 -6 -6z" fill="#e9f2e4"/>
<path d="M6967 7552 c-48 -8 -85 -17 -83 -19 5 -6 198 25 205 33 7 6 -27 3 -122 -14z" fill="#e9f2e4"/>
<path d="M7150 7539 c-86 -31 -217 -48 -449 -59 -118 -6 -217 -13 -220 -16 -9 -10 320 6 454 22 119 13 261 47 280 65 13 13 -2 10 -65 -12z" fill="#e9f2e4"/>
<path d="M6568 7513 c34 -2 90 -2 125 0 34 2 6 3 -63 3 -69 0 -97 -1 -62 -3z" fill="#e9f2e4"/>
<path d="M6915 7432 c-49 -8 -85 -17 -79 -19 13 -4 195 24 202 32 8 8 -23 4 -123 -13z" fill="#e9f2e4"/>
<path d="M7105 7440 c-13 -6 -15 -9 -5 -9 8 0 22 4 30 9 18 12 2 12 -25 0z" fill="#e9f2e4"/>
<path d="M7015 7420 c-27 -7 -27 -8 -5 -8 14 0 36 4 50 8 20 6 21 8 5 8 -11 0 -33 -4 -50 -8z" fill="#e9f2e4"/>
<path d="M6817 7398 c2 -5 -17 -9 -44 -10 -30 -1 -37 -3 -18 -5 17 -2 57 0 90 5 l60 8 -47 5 c-25 2 -44 1 -41 -3z" fill="#e9f2e4"/>
<path d="M6928 7403 c12 -2 30 -2 40 0 9 3 -1 5 -23 4 -22 0 -30 -2 -17 -4z" fill="#e9f2e4"/>
<path d="M6810 7330 c-58 -10 -91 -18 -75 -19 35 -1 205 25 213 33 8 8 -19 6 -138 -14z" fill="#e9f2e4"/>
<path d="M6890 7290 c-20 -6 -21 -8 -5 -8 11 0 31 4 45 8 20 6 21 8 5 8 -11 0 -31 -4 -45 -8z" fill="#e9f2e4"/>
<path d="M5523 7283 c9 -2 23 -2 30 0 6 3 -1 5 -18 5 -16 0 -22 -2 -12 -5z" fill="#e9f2e4"/>
<path d="M5588 7273 c6 -2 18 -2 25 0 6 3 1 5 -13 5 -14 0 -19 -2 -12 -5z" fill="#e9f2e4"/>
<path d="M6900 7255 c-86 -27 -77 -33 14 -9 64 17 105 34 76 33 -8 -1 -49 -12 -90 -24z" fill="#e9f2e4"/>
<path d="M5648 7263 c7 -3 16 -2 19 1 4 3 -2 6 -13 5 -11 0 -14 -3 -6 -6z" fill="#e9f2e4"/>
<path d="M6693 7253 c9 -2 23 -2 30 0 6 3 -1 5 -18 5 -16 0 -22 -2 -12 -5z" fill="#e9f2e4"/>
<path d="M7040 7250 c-8 -5 -10 -10 -5 -10 6 0 17 5 25 10 8 5 11 10 5 10 -5 0 -17 -5 -25 -10z" fill="#e9f2e4"/>
<path d="M5605 7242 c28 -13 119 -22 108 -11 -4 4 -35 11 -68 14 -39 3 -53 2 -40 -3z" fill="#e9f2e4"/>
<path d="M6412 7189 c-23 -17 -42 -32 -42 -33 0 -8 59 2 75 13 20 13 19 13 -32 -5 -10 -3 -2 8 17 25 45 39 36 40 -18 0z" fill="#e9f2e4"/>
<path d="M6898 7203 c7 -3 16 -2 19 1 4 3 -2 6 -13 5 -11 0 -14 -3 -6 -6z" fill="#e9f2e4"/>
<path d="M6726 7174 c-133 -26 -167 -36 -91 -28 63 8 237 43 243 49 9 9 -30 3 -152 -21z" fill="#e9f2e4"/>
<path d="M6890 7170 c-47 -15 -80 -28 -73 -29 15 -1 173 48 173 54 0 7 -8 5 -100 -25z" fill="#e9f2e4"/>
<path d="M5740 7090 c0 -4 9 -10 20 -13 11 -3 20 -2 20 3 0 4 -9 10 -20 13 -11 3 -20 2 -20 -3z" fill="#e9f2e4"/>
<path d="M6944 7075 c-15 -11 -16 -14 -3 -15 8 0 24 7 35 15 15 11 16 14 3 15 -8 0 -24 -7 -35 -15z" fill="#e9f2e4"/>
<path d="M6670 7050 c0 -12 27 -12 55 0 16 7 13 9 -17 9 -21 1 -38 -3 -38 -9z" fill="#e9f2e4"/>
<path d="M6010 7030 c8 -5 31 -10 50 -10 26 0 31 3 20 10 -8 5 -31 10 -50 10 -26 0 -31 -3 -20 -10z" fill="#e9f2e4"/>
<path d="M6298 7023 c39 -2 105 -2 145 0 39 1 7 3 -73 3 -80 0 -112 -2 -72 -3z" fill="#e9f2e4"/>
<path d="M6285 6918 c-270 -10 -332 -15 -318 -29 5 -5 47 -12 93 -16 l85 -8 -1 -70 c0 -38 -8 -223 -17 -410 -29 -592 -27 -564 -47 -583 -9 -9 -23 -27 -29 -40 -12 -23 -13 -23 -66 27 -30 28 -63 51 -73 51 -11 0 -45 25 -76 55 -46 46 -61 55 -91 55 -44 0 -86 -21 -114 -56 -15 -19 -22 -22 -26 -13 -2 8 -22 151 -45 318 -22 167 -43 307 -46 310 -15 13 7 -228 41 -449 32 -214 35 -253 35 -455 0 -230 -7 -295 -64 -590 -69 -363 -153 -664 -266 -960 -91 -236 -120 -446 -86 -614 22 -107 43 -147 107 -205 67 -61 155 -101 292 -136 183 -45 364 -65 602 -64 201 0 216 2 355 33 212 48 288 75 375 131 129 85 228 190 291 310 l29 55 0 230 c0 202 -3 243 -23 340 -44 210 -82 333 -157 515 -83 199 -99 246 -144 425 -56 226 -86 509 -76 720 3 74 2 143 -4 160 l-9 30 -1 -31 c-1 -17 -4 -46 -7 -63 -6 -29 -9 -31 -50 -31 -37 0 -44 3 -44 20 0 32 -34 58 -74 58 -26 0 -46 9 -71 31 -63 55 -101 40 -159 -61 -25 -45 -29 -48 -69 -48 -23 0 -52 -6 -63 -13 -73 -42 -88 -48 -109 -43 -13 3 -25 12 -28 20 -3 8 -2 66 3 128 20 238 40 529 46 660 3 77 10 135 15 132 5 -3 9 10 10 28 1 18 5 44 10 58 6 17 7 0 4 -50 -10 -145 -15 -815 -6 -780 5 19 12 170 16 335 4 165 11 354 15 420 l7 120 3 -115 c2 -91 4 -107 11 -75 4 22 9 63 10 90 1 28 4 39 6 25 9 -49 20 -40 27 19 4 34 12 61 18 61 8 0 9 -63 5 -227 -4 -124 -7 -296 -7 -381 0 -136 -2 -153 -15 -142 -10 8 -15 31 -15 64 0 37 -3 47 -10 36 -5 -8 -9 -55 -9 -105 1 -65 4 -82 9 -60 6 20 8 0 7 -62 -1 -50 1 -95 6 -99 4 -4 8 40 9 97 l2 104 5 -110 c5 -89 9 -110 21 -110 21 0 25 59 41 567 11 373 15 428 28 432 9 2 43 7 76 11 85 8 115 15 115 26 0 5 -17 8 -37 7 -21 -1 -146 -5 -278 -10z m-98 -125 c-2 -16 -4 -3 -4 27 0 30 2 43 4 28 2 -16 2 -40 0 -55z m-474 -933 c-41 -39 -63 -50 -63 -31 0 15 70 71 88 71 12 0 5 -12 -25 -40z m779 25 c0 -5 -5 -11 -11 -13 -6 -2 -11 4 -11 13 0 9 5 15 11 13 6 -2 11 -8 11 -13z m-745 -51 c-35 -30 -52 -31 -37 -3 11 20 50 41 60 32 3 -3 -8 -16 -23 -29z m68 7 c7 -12 -12 -24 -25 -16 -11 7 -4 25 10 25 5 0 11 -4 15 -9z m785 -22 c0 -5 -4 -9 -10 -9 -5 0 -10 7 -10 16 0 8 5 12 10 9 6 -3 10 -10 10 -16z m-102 -27 c4 -28 -24 -40 -45 -19 -14 13 -14 19 -3 32 18 22 44 15 48 -13z m229 6 c21 -24 37 -48 31 -48 -2 0 -19 16 -38 35 -19 19 -29 35 -24 35 6 0 20 -10 31 -22z m13 -58 c16 -23 18 -28 5 -24 -19 8 -46 54 -31 54 3 0 14 -13 26 -30z m-105 -50 c3 -5 -1 -10 -9 -10 -9 0 -16 5 -16 10 0 6 4 10 9 10 6 0 13 -4 16 -10z m-787 -207 c-4 -22 -22 -20 -26 1 -2 10 3 16 13 16 10 0 15 -7 13 -17z m926 -35 c9 -35 7 -118 -3 -118 -9 0 -21 58 -21 108 0 37 15 43 24 10z m-42 -83 c3 -13 1 -22 -3 -19 -9 5 -13 44 -5 44 2 0 6 -11 8 -25z m-541 -97 c16 -33 28 -65 26 -71 -2 -7 -12 3 -21 22 -14 26 -20 31 -27 20 -9 -15 -11 -11 -14 31 -1 14 -5 36 -10 49 -13 43 14 13 46 -51z m-552 10 c-1 -62 -12 -111 -20 -88 -8 24 2 140 12 140 5 0 9 -24 8 -52z m601 -16 c0 -15 -2 -15 -10 -2 -13 20 -13 33 0 25 6 -3 10 -14 10 -23z m-570 -35 c0 -12 -5 -29 -10 -37 -7 -11 -10 -3 -10 28 0 26 4 41 10 37 6 -3 10 -16 10 -28z m32 -23 c-3 -17 -8 -22 -15 -15 -11 11 -3 41 11 41 5 0 7 -12 4 -26z m1108 -11 c0 -22 -2 -25 -10 -13 -13 20 -13 40 0 40 6 0 10 -12 10 -27z m-216 -28 c-4 -8 -10 -15 -15 -15 -4 0 -6 7 -3 15 4 8 10 15 15 15 4 0 6 -7 3 -15z m16 -30 c-7 -9 -15 -13 -17 -11 -7 7 7 26 19 26 6 0 6 -6 -2 -15z m-228 -190 c0 -5 -5 -11 -11 -13 -6 -2 -11 4 -11 13 0 9 5 15 11 13 6 -2 11 -8 11 -13z m133 -4 c7 -12 -12 -24 -25 -16 -11 7 -4 25 10 25 5 0 11 -4 15 -9z m374 -49 c38 -75 82 -184 77 -190 -12 -11 -116 197 -116 232 0 27 9 18 39 -42z m-449 -47 c16 -20 6 -45 -19 -45 -23 0 -32 18 -19 43 11 21 22 22 38 2z m447 -72 c23 -56 14 -60 -17 -8 -16 28 -30 54 -30 59 0 17 33 -20 47 -51z m-7 -56 c0 -5 -4 -5 -10 -2 -5 3 -10 14 -10 23 0 15 2 15 10 2 5 -8 10 -19 10 -23z m-1109 13 c37 -20 18 -80 -26 -80 -12 0 -26 5 -33 12 -25 25 -8 78 26 78 7 0 22 -5 33 -10z m-134 -76 c-9 -9 -28 6 -21 18 4 6 10 6 17 -1 6 -6 8 -13 4 -17z m-126 -31 c-10 -17 -10 -16 -11 3 0 23 13 41 18 25 2 -6 -1 -18 -7 -28z m1509 1 c0 -8 -4 -12 -10 -9 -5 3 -10 10 -10 16 0 5 5 9 10 9 6 0 10 -7 10 -16z m-1464 -140 c-4 -12 -10 -14 -17 -7 -5 5 -7 17 -3 27 4 12 10 14 17 7 5 -5 7 -17 3 -27z m196 -26 c-15 -15 -26 -4 -18 18 5 13 9 15 18 6 9 -9 9 -15 0 -24z m-262 -29 c-31 -124 -63 -210 -76 -205 -8 3 -15 -6 -19 -24 -7 -31 -20 -46 -28 -33 -9 14 19 80 46 112 14 17 28 45 32 63 10 47 46 140 52 135 2 -3 -1 -25 -7 -48z m1536 -38 c-11 -18 -36 -13 -36 7 0 10 3 22 7 26 10 10 37 -20 29 -33z m-118 -43 c16 -16 15 -23 -4 -42 -21 -21 -31 -20 -44 5 -19 35 20 65 48 37z m-967 -100 c17 -29 38 -63 47 -75 9 -14 10 -23 4 -23 -11 0 -87 104 -98 135 -14 35 17 11 47 -37z m59 -22 c0 -5 -7 -3 -15 4 -8 7 -15 20 -15 28 0 13 3 12 15 -4 8 -10 15 -23 15 -28z m-83 -12 c-4 -4 -14 1 -22 12 -22 29 -18 41 7 17 12 -13 19 -26 15 -29z m1213 0 c0 -8 -4 -12 -10 -9 -5 3 -10 13 -10 21 0 8 5 12 10 9 6 -3 10 -13 10 -21z m29 -85 c6 -18 11 -50 10 -73 l-1 -41 -13 30 c-18 43 -29 115 -17 115 6 0 15 -14 21 -31z m-663 -50 c9 -16 -12 -33 -31 -25 -14 5 -15 9 -5 21 15 18 26 19 36 4z m-156 -51 c0 -5 -7 -8 -15 -8 -15 0 -20 21 -8 33 7 7 23 -11 23 -25z m-830 -73 c0 -8 -4 -15 -10 -15 -5 0 -10 7 -10 15 0 8 5 15 10 15 6 0 10 -7 10 -15z m182 -27 c-12 -12 -35 -1 -27 12 3 5 13 6 21 3 10 -4 12 -9 6 -15z m-136 -73 c-7 -20 -25 -16 -40 8 -8 13 -7 20 4 27 20 12 45 -12 36 -35z m1224 14 c0 -26 -28 -36 -46 -17 -14 13 -14 17 1 31 19 20 45 12 45 -14z m260 -69 c0 -5 -7 -10 -15 -10 -8 0 -15 5 -15 10 0 6 7 10 15 10 8 0 15 -4 15 -10z m-531 -77 c-67 -98 -199 -253 -164 -193 41 71 184 254 192 246 3 -3 -10 -26 -28 -53z m-719 8 c0 -26 -25 -44 -50 -36 -25 8 -27 50 -3 64 23 12 53 -4 53 -28z m1100 13 c0 -8 -7 -14 -15 -14 -15 0 -21 21 -9 33 10 9 24 -2 24 -19z m-489 -71 c-19 -34 -59 -78 -65 -72 -4 3 8 25 26 47 34 42 57 56 39 25z m-1073 -175 c6 -15 36 -69 67 -119 31 -50 54 -93 52 -96 -8 -7 -65 68 -97 128 -43 81 -70 165 -69 213 0 38 2 36 18 -29 10 -38 23 -82 29 -97z m1427 132 c-5 -8 -11 -8 -17 -2 -6 6 -7 16 -3 22 5 8 11 8 17 2 6 -6 7 -16 3 -22z m-274 -38 c-13 -24 -51 -58 -51 -45 0 6 9 22 21 37 23 30 45 36 30 8z m174 -2 c3 -6 -1 -13 -10 -16 -19 -8 -30 0 -20 15 8 14 22 14 30 1z m209 -6 c21 -8 20 -28 0 -45 -14 -11 -18 -10 -30 6 -10 13 -11 22 -3 32 13 15 12 15 33 7z m194 -90 c-33 -46 -212 -237 -187 -199 36 53 205 245 217 245 2 0 -12 -21 -30 -46z m-1642 -55 c25 -50 43 -93 41 -95 -11 -11 -97 151 -97 182 0 17 16 -9 56 -87z m644 52 c0 -5 -7 -11 -15 -15 -9 -3 -15 0 -15 9 0 8 7 15 15 15 8 0 15 -4 15 -9z m1017 -28 c-16 -30 -54 -69 -61 -62 -3 2 12 25 32 51 39 52 52 56 29 11z m-1607 -15 c11 -18 20 -40 20 -48 -1 -23 -50 37 -50 61 0 27 7 24 30 -13z m1508 13 c-6 -16 -178 -171 -190 -171 -6 0 31 40 83 90 87 82 116 104 107 81z m-1001 -117 c1 -5 -2 -16 -7 -24 -12 -20 -35 2 -26 25 6 17 27 16 33 -1z m188 -54 c3 -5 -1 -10 -10 -10 -9 0 -13 5 -10 10 3 6 8 10 10 10 2 0 7 -4 10 -10z m-331 -47 c9 -22 -10 -41 -25 -26 -13 13 -5 43 10 43 5 0 12 -8 15 -17z m471 -43 c-6 -9 -9 -9 -16 1 -10 17 0 34 13 21 6 -6 7 -16 3 -22z m-260 -30 c3 -5 -3 -10 -14 -10 -12 0 -21 5 -21 10 0 6 6 10 14 10 8 0 18 -4 21 -10z" fill="#e9f2e4"/>
<path d="M6282 6325 c0 -16 2 -22 5 -12 2 9 2 23 0 30 -3 6 -5 -1 -5 -18z" fill="#e9f2e4"/>
<path d="M6176 6054 c-8 -20 -6 -91 4 -129 5 -21 8 -4 9 58 1 87 -2 101 -13 71z" fill="#e9f2e4"/>
<path d="M6670 2970 c-85 -16 -180 -32 -210 -36 -30 -3 -64 -11 -74 -16 -17 -9 -18 -11 -3 -20 38 -21 447 63 447 92 0 6 -1 10 -2 9 -2 0 -73 -14 -158 -29z" fill="#e9f2e4"/>
<path d="M5065 2971 c21 -20 433 -186 442 -178 1 2 -99 45 -224 96 -125 50 -223 87 -218 82z" fill="#e9f2e4"/>
<path d="M5230 2955 c25 -13 50 -24 55 -24 6 0 -10 11 -35 24 -25 13 -49 24 -55 24 -5 0 10 -11 35 -24z" fill="#e9f2e4"/>
<path d="M5693 2913 c16 -16 41 -18 289 -21 160 -2 275 1 280 6 6 6 -86 12 -244 16 -139 3 -273 9 -298 12 -44 6 -44 5 -27 -13z" fill="#e9f2e4"/>
<path d="M7013 2894 c-18 -8 -33 -16 -33 -19 0 -5 70 22 79 30 8 9 -14 4 -46 -11z" fill="#e9f2e4"/>
<path d="M5150 2862 c8 -5 26 -13 40 -16 17 -5 20 -4 10 2 -8 5 -26 13 -40 16 -17 5 -20 4 -10 -2z" fill="#e9f2e4"/>
<path d="M6940 2820 c-74 -27 -130 -49 -124 -49 14 -1 242 77 264 90 30 17 -8 6 -140 -41z" fill="#e9f2e4"/>
<path d="M5150 2835 c0 -5 52 -28 91 -40 13 -4 22 -5 19 -2 -8 8 -110 47 -110 42z" fill="#e9f2e4"/>
<path d="M5220 2836 c0 -2 7 -7 16 -10 8 -3 12 -2 9 4 -6 10 -25 14 -25 6z" fill="#e9f2e4"/>
<path d="M5883 2833 c26 -2 67 -2 90 0 23 2 2 3 -48 3 -49 0 -68 -1 -42 -3z" fill="#e9f2e4"/>
<path d="M7015 2811 c-22 -11 -35 -19 -30 -19 14 -1 93 36 80 37 -5 0 -28 -8 -50 -18z" fill="#e9f2e4"/>
<path d="M5165 2800 c6 -10 144 -65 149 -59 3 2 -31 18 -75 36 -43 17 -77 27 -74 23z" fill="#e9f2e4"/>
<path d="M7030 2790 c-25 -11 -38 -19 -30 -19 8 0 33 8 55 18 51 25 34 25 -25 1z" fill="#e9f2e4"/>
<path d="M5182 2764 c38 -20 279 -114 292 -114 6 1 -61 30 -149 65 -161 66 -193 76 -143 49z" fill="#e9f2e4"/>
<path d="M6155 2710 l-80 -6 105 -1 c58 0 119 3 135 7 24 6 19 8 -25 7 -30 0 -91 -4 -135 -7z" fill="#e9f2e4"/>
<path d="M5026 2615 c10 -8 24 -14 29 -14 6 0 1 6 -9 14 -11 8 -24 15 -30 15 -5 0 -1 -7 10 -15z" fill="#e9f2e4"/>
<path d="M5207 2619 c11 -11 235 -78 263 -79 35 0 -14 21 -126 54 -130 39 -155 43 -137 25z" fill="#e9f2e4"/>
<path d="M6820 2611 c-90 -24 -104 -32 -45 -25 79 9 145 25 145 35 0 13 -24 10 -100 -10z" fill="#e9f2e4"/>
<path d="M5027 2575 c24 -17 73 -37 73 -30 0 6 -76 45 -87 45 -4 0 2 -7 14 -15z" fill="#e9f2e4"/>
<path d="M6990 2565 c-36 -13 -58 -24 -49 -24 21 -1 108 29 115 40 3 5 4 9 2 8 -2 0 -32 -11 -68 -24z" fill="#e9f2e4"/>
<path d="M6520 2554 c-41 -7 -95 -20 -120 -28 l-45 -14 48 -1 c52 -1 240 34 266 49 24 14 -60 11 -149 -6z" fill="#e9f2e4"/>
<path d="M7005 2546 c-99 -28 -122 -38 -71 -30 45 6 189 52 166 52 -8 0 -51 -10 -95 -22z" fill="#e9f2e4"/>
<path d="M7240 2553 c-25 -8 -112 -32 -195 -53 -82 -21 -143 -39 -135 -39 40 -2 356 83 375 100 11 11 12 11 -45 -8z" fill="#e9f2e4"/>
<path d="M5000 2549 c25 -17 130 -70 130 -65 0 5 -128 76 -138 76 -4 0 0 -5 8 -11z" fill="#e9f2e4"/>
<path d="M5534 2522 c13 -21 81 -31 276 -42 238 -12 230 -12 230 -1 0 10 -71 17 -289 31 -85 5 -170 13 -189 16 -24 5 -33 3 -28 -4z" fill="#e9f2e4"/>
<path d="M6868 2503 c7 -3 16 -2 19 1 4 3 -2 6 -13 5 -11 0 -14 -3 -6 -6z" fill="#e9f2e4"/>
<path d="M6975 2430 c-216 -50 -257 -66 -74 -29 113 22 301 68 308 75 9 8 -30 1 -234 -46z" fill="#e9f2e4"/>
<path d="M5060 2457 c0 -7 151 -69 156 -64 2 2 -28 17 -68 33 -40 16 -76 31 -80 32 -5 2 -8 1 -8 -1z" fill="#e9f2e4"/>
<path d="M6830 2450 c-20 -6 -21 -8 -5 -8 11 0 31 4 45 8 20 6 21 8 5 8 -11 0 -31 -4 -45 -8z" fill="#e9f2e4"/>
<path d="M6768 2433 c6 -2 18 -2 25 0 6 3 1 5 -13 5 -14 0 -19 -2 -12 -5z" fill="#e9f2e4"/>
<path d="M5020 2426 c0 -3 9 -10 20 -16 11 -6 20 -8 20 -6 0 3 -9 10 -20 16 -11 6 -20 8 -20 6z" fill="#e9f2e4"/>
<path d="M6655 2415 c-36 -8 -48 -13 -30 -13 17 0 53 6 80 13 64 16 28 16 -50 0z" fill="#e9f2e4"/>
<path d="M7035 2385 c-49 -12 -82 -23 -72 -24 19 -1 179 37 186 45 8 8 -24 2 -114 -21z" fill="#e9f2e4"/>
<path d="M5070 2396 c0 -3 14 -12 30 -21 17 -9 30 -13 30 -11 0 3 -13 12 -30 21 -16 9 -30 13 -30 11z" fill="#e9f2e4"/>
<path d="M6558 2393 c6 -2 18 -2 25 0 6 3 1 5 -13 5 -14 0 -19 -2 -12 -5z" fill="#e9f2e4"/>
<path d="M5240 2380 c8 -5 20 -10 25 -10 6 0 3 5 -5 10 -8 5 -19 10 -25 10 -5 0 -3 -5 5 -10z" fill="#e9f2e4"/>
<path d="M5020 2375 c0 -7 181 -97 186 -93 2 2 -39 25 -91 51 -52 26 -95 45 -95 42z" fill="#e9f2e4"/>
<path d="M4970 2356 c19 -19 150 -90 155 -84 2 2 -35 25 -83 51 -48 27 -80 41 -72 33z" fill="#e9f2e4"/>
<path d="M6975 2325 c-104 -24 -182 -44 -173 -44 23 -1 291 55 348 73 80 25 19 15 -175 -29z" fill="#e9f2e4"/>
<path d="M6908 2353 c6 -2 18 -2 25 0 6 3 1 5 -13 5 -14 0 -19 -2 -12 -5z" fill="#e9f2e4"/>
<path d="M6868 2343 c7 -3 16 -2 19 1 4 3 -2 6 -13 5 -11 0 -14 -3 -6 -6z" fill="#e9f2e4"/>
<path d="M7020 2295 c-80 -19 -203 -45 -275 -59 -71 -13 -121 -25 -109 -25 53 -2 554 102 554 115 0 7 -22 3 -170 -31z" fill="#e9f2e4"/>
<path d="M5010 2274 c68 -39 140 -75 140 -70 0 7 -165 96 -176 96 -5 0 11 -12 36 -26z" fill="#e9f2e4"/>
<path d="M6975 2239 c-55 -16 -81 -26 -57 -23 45 6 197 52 172 52 -8 0 -60 -13 -115 -29z" fill="#e9f2e4"/>
<path d="M5190 2240 c19 -11 40 -19 45 -19 6 0 -6 8 -25 19 -19 11 -39 19 -45 19 -5 0 6 -8 25 -19z" fill="#e9f2e4"/>
<path d="M7050 2220 c-74 -21 -128 -39 -120 -39 20 -1 194 44 245 63 72 26 13 15 -125 -24z" fill="#e9f2e4"/>
<path d="M7290 2248 c-14 -6 -92 -35 -175 -64 -161 -57 -186 -72 -40 -25 88 29 246 89 254 97 8 7 -13 3 -39 -8z" fill="#e9f2e4"/>
<path d="M5010 2246 c0 -7 71 -49 75 -44 3 2 -13 15 -35 27 -22 12 -40 20 -40 17z" fill="#e9f2e4"/>
<path d="M5260 2210 c8 -5 20 -10 25 -10 6 0 3 5 -5 10 -8 5 -19 10 -25 10 -5 0 -3 -5 5 -10z" fill="#e9f2e4"/>
<path d="M6573 2203 c9 -2 23 -2 30 0 6 3 -1 5 -18 5 -16 0 -22 -2 -12 -5z" fill="#e9f2e4"/>
<path d="M7088 2132 c-76 -30 -136 -57 -135 -59 5 -4 153 51 227 85 103 48 58 35 -92 -26z" fill="#e9f2e4"/>
<path d="M6915 2120 c-13 -5 -14 -9 -5 -9 8 0 24 4 35 9 13 5 14 9 5 9 -8 0 -24 -4 -35 -9z" fill="#e9f2e4"/>
<path d="M6975 2035 c-25 -12 -26 -14 -5 -9 28 7 60 23 45 23 -5 0 -23 -6 -40 -14z" fill="#e9f2e4"/>
<path d="M6895 2010 c-13 -5 -14 -9 -5 -9 8 0 24 4 35 9 13 5 14 9 5 9 -8 0 -24 -4 -35 -9z" fill="#e9f2e4"/>
<path d="M5199 1974 c52 -19 96 -33 98 -31 4 5 -165 67 -181 66 -6 0 31 -16 83 -35z" fill="#e9f2e4"/>
<path d="M6795 1980 c-13 -5 -14 -9 -5 -9 8 0 24 4 35 9 13 5 14 9 5 9 -8 0 -24 -4 -35 -9z" fill="#e9f2e4"/>
<path d="M6678 1943 c7 -3 16 -2 19 1 4 3 -2 6 -13 5 -11 0 -14 -3 -6 -6z" fill="#e9f2e4"/>
<path d="M6638 1933 c7 -3 16 -2 19 1 4 3 -2 6 -13 5 -11 0 -14 -3 -6 -6z" fill="#e9f2e4"/>
<path d="M6755 1910 c-13 -5 -14 -9 -5 -9 8 0 24 4 35 9 13 5 14 9 5 9 -8 0 -24 -4 -35 -9z" fill="#e9f2e4"/>
<path d="M5893 1843 c9 -2 23 -2 30 0 6 3 -1 5 -18 5 -16 0 -22 -2 -12 -5z" fill="#e9f2e4"/>
<path d="M6188 1833 c34 -2 88 -2 120 0 31 2 3 3 -63 3 -66 0 -92 -1 -57 -3z" fill="#e9f2e4"/>
<path d="M9075 8189 c-104 -15 -226 -40 -269 -54 -266 -86 -519 -269 -627 -451 -24 -40 -53 -71 -93 -99 -32 -23 -63 -50 -69 -61 -17 -29 -37 -244 -25 -269 8 -17 45 -49 170 -146 18 -14 19 -19 8 -77 -18 -92 -1 -199 86 -542 60 -233 81 -302 102 -329 60 -75 57 -60 58 -290 1 -139 9 -293 23 -431 62 -619 23 -1218 -114 -1755 -42 -164 -80 -279 -234 -708 -40 -109 -79 -224 -87 -255 -24 -84 -30 -273 -11 -344 15 -56 14 -58 -8 -82 -30 -32 -41 -68 -59 -199 -19 -126 -20 -185 -6 -223 7 -18 7 -37 1 -58 -5 -17 -15 -162 -22 -322 -15 -351 -18 -338 107 -422 112 -75 318 -178 405 -201 139 -38 556 -102 699 -108 294 -12 786 55 1013 138 139 50 332 198 356 272 17 51 61 436 61 531 0 58 -5 96 -16 119 -16 32 -15 41 4 138 40 203 38 274 -10 342 l-21 29 23 73 c21 66 22 86 17 197 -3 69 -17 178 -31 248 -31 156 -165 692 -256 1030 -117 435 -135 550 -134 875 0 268 3 299 70 675 37 210 60 490 50 599 -7 63 -7 63 29 95 33 28 40 44 75 171 21 78 51 174 66 215 85 235 105 310 129 492 6 47 7 49 90 99 123 75 119 69 123 215 l4 124 -29 26 c-15 14 -48 40 -73 58 -25 17 -66 63 -92 101 -27 39 -77 100 -112 136 -84 87 -261 228 -335 268 -91 48 -396 161 -479 177 -121 23 -336 17 -557 -17z m485 -44 c0 -3 -5 -14 -12 -24 -19 -31 4 -71 41 -71 33 0 47 25 37 66 -8 30 -6 30 107 -1 119 -33 178 -56 312 -123 125 -61 165 -91 286 -212 80 -79 90 -94 153 -225 37 -77 72 -148 77 -159 24 -42 -168 -179 -322 -230 -41 -14 -150 -40 -242 -58 -92 -18 -167 -36 -167 -40 0 -5 10 -6 23 -3 12 2 60 9 107 15 126 16 315 66 395 104 72 34 149 89 244 174 54 48 54 49 38 73 -16 22 -23 59 -12 59 21 0 67 -35 75 -56 12 -30 13 -204 2 -219 -41 -58 -328 -221 -506 -286 -139 -52 -366 -91 -629 -108 -76 -5 -142 -13 -145 -17 -4 -4 72 -4 168 -1 186 6 419 39 559 78 76 21 237 86 299 121 l32 18 0 -44 c0 -76 -30 -204 -81 -350 -27 -77 -60 -181 -74 -229 -13 -49 -30 -96 -37 -104 -18 -22 -152 -87 -239 -116 -150 -50 -374 -87 -533 -87 -33 0 -68 -4 -75 -9 -28 -18 38 -24 188 -18 218 9 378 47 559 132 83 40 92 42 92 24 0 -38 -28 -86 -62 -107 -19 -12 -71 -33 -116 -48 -54 -17 -88 -34 -96 -48 -8 -11 -21 -73 -31 -136 -9 -63 -38 -227 -65 -365 -27 -137 -61 -343 -75 -457 -25 -205 -33 -442 -16 -452 4 -3 11 61 15 142 8 168 40 371 96 617 92 400 110 493 110 573 l0 80 62 21 c34 12 66 21 70 21 18 0 5 -137 -52 -560 -76 -561 -86 -697 -71 -923 21 -299 28 -332 292 -1322 164 -618 170 -655 125 -789 -55 -162 -142 -271 -286 -356 -122 -73 -241 -111 -505 -165 -146 -30 -178 -45 -94 -45 118 0 382 57 518 111 90 36 225 123 297 191 30 28 58 48 62 44 13 -13 8 -278 -7 -328 -18 -62 -65 -110 -154 -154 -120 -61 -201 -108 -190 -111 17 -6 185 57 271 102 l82 44 0 -57 c-1 -120 -19 -344 -30 -357 -6 -7 -32 -21 -58 -30 -183 -66 -233 -85 -207 -80 17 3 81 24 143 46 63 22 117 38 120 34 18 -18 -29 -44 -169 -93 -85 -30 -212 -70 -284 -88 -71 -19 -108 -32 -82 -29 74 10 221 50 379 105 78 27 145 47 147 44 14 -14 -23 -42 -83 -63 -37 -13 -65 -25 -63 -27 2 -2 29 5 60 15 32 11 57 18 57 16 0 -9 -145 -78 -210 -101 -36 -12 -56 -23 -46 -23 11 -1 75 22 144 49 68 28 127 49 129 46 14 -13 -76 -98 -189 -179 -65 -46 -101 -63 -235 -107 -164 -54 -388 -98 -603 -119 -214 -20 -578 23 -970 115 -113 27 -157 48 -318 156 -85 57 -107 77 -123 111 -22 49 -25 151 -9 317 5 58 12 149 16 203 l6 97 50 -42 c156 -134 331 -213 518 -233 30 -3 73 -8 95 -10 68 -8 17 12 -65 25 -249 40 -366 89 -479 200 -31 30 -71 84 -90 119 l-34 64 6 116 c5 109 28 221 46 221 4 0 25 -22 47 -48 95 -118 216 -179 464 -232 197 -43 209 -45 194 -31 -5 4 -65 23 -134 41 -237 61 -346 116 -462 229 -64 64 -67 69 -83 145 -42 190 17 455 225 1011 96 258 178 628 220 1000 44 388 47 653 15 1075 -37 469 -45 593 -40 598 7 7 126 -40 131 -52 9 -27 85 -804 90 -921 3 -71 7 -150 10 -174 9 -72 24 -28 24 71 0 85 1 88 28 103 l27 16 -27 -6 c-19 -4 -28 -1 -28 7 0 7 -18 210 -41 451 -23 241 -38 441 -35 444 5 5 79 -7 146 -24 17 -4 22 -2 15 4 -5 6 -67 29 -137 52 -163 54 -235 106 -274 200 -13 31 -13 32 9 25 12 -3 44 -17 70 -31 130 -65 128 -48 -4 43 -56 38 -107 80 -114 94 -7 14 -39 120 -70 234 -50 183 -58 223 -62 325 -2 67 0 122 5 130 8 12 43 -1 190 -67 100 -45 186 -82 193 -82 22 0 -3 16 -56 35 -82 30 -265 124 -350 180 -104 69 -199 167 -192 198 3 12 11 63 18 112 11 83 28 125 52 125 5 0 6 -7 3 -15 -3 -8 -8 -21 -11 -28 -6 -14 148 -142 234 -194 55 -33 248 -113 273 -113 7 0 -48 28 -122 61 -74 34 -148 71 -165 82 -41 29 -155 138 -155 149 0 5 41 70 91 145 201 300 405 442 714 497 110 20 167 24 368 25 130 0 237 -1 237 -4z" fill="#e9f2e4"/>
<path d="M9287 8123 c-14 -13 -7 -33 11 -33 26 0 34 11 21 27 -13 14 -22 16 -32 6z" fill="#e9f2e4"/>
<path d="M8940 8075 c-10 -12 -10 -21 -1 -41 9 -21 17 -25 44 -22 25 2 33 8 35 26 7 45 -49 72 -78 37z" fill="#e9f2e4"/>
<path d="M9140 8065 c-15 -19 -4 -52 21 -60 38 -12 65 35 37 63 -16 16 -43 15 -58 -3z" fill="#e9f2e4"/>
<path d="M9370 8050 c-8 -15 -6 -24 10 -40 25 -25 35 -25 54 2 11 15 12 26 5 40 -13 24 -55 23 -69 -2z" fill="#e9f2e4"/>
<path d="M9686 8034 c-19 -19 -20 -36 -4 -52 24 -24 78 -8 78 24 0 17 -28 44 -45 44 -7 0 -21 -7 -29 -16z" fill="#e9f2e4"/>
<path d="M8826 8012 c-2 -4 -1 -14 4 -22 7 -11 12 -12 21 -3 6 6 8 16 5 22 -8 13 -23 14 -30 3z" fill="#e9f2e4"/>
<path d="M9850 7995 c-19 -23 -8 -50 20 -50 19 0 26 6 28 24 5 35 -26 53 -48 26z" fill="#e9f2e4"/>
<path d="M8935 7944 c-19 -20 -16 -43 8 -58 37 -23 77 35 41 61 -23 17 -29 16 -49 -3z" fill="#e9f2e4"/>
<path d="M9252 7943 c-14 -26 3 -53 34 -53 14 0 27 7 31 16 15 39 -46 73 -65 37z" fill="#e9f2e4"/>
<path d="M9517 7953 c-12 -11 -8 -40 7 -52 28 -23 68 17 45 45 -12 15 -41 19 -52 7z" fill="#e9f2e4"/>
<path d="M9102 7938 c-30 -30 3 -77 40 -57 30 16 16 69 -17 69 -6 0 -16 -5 -23 -12z" fill="#e9f2e4"/>
<path d="M8484 7865 c11 -8 25 -15 30 -15 6 0 2 7 -8 15 -11 8 -25 15 -30 15 -6 0 -2 -7 8 -15z" fill="#e9f2e4"/>
<path d="M9682 7848 c-27 -27 -6 -68 35 -68 24 0 40 36 29 65 -7 18 -47 20 -64 3z" fill="#e9f2e4"/>
<path d="M9544 7835 c-10 -25 4 -45 30 -45 13 0 26 7 30 15 9 25 -5 45 -30 45 -14 0 -27 -7 -30 -15z" fill="#e9f2e4"/>
<path d="M9386 7814 c-9 -8 -16 -19 -16 -24 0 -9 28 -40 36 -40 18 0 44 24 44 40 0 11 -9 24 -19 30 -25 13 -27 13 -45 -6z" fill="#e9f2e4"/>
<path d="M9230 7795 c0 -10 7 -15 18 -13 21 4 19 22 -2 26 -10 2 -16 -3 -16 -13z" fill="#e9f2e4"/>
<path d="M10174 7778 c-3 -4 11 -8 30 -8 20 0 36 2 36 4 0 8 -61 12 -66 4z" fill="#e9f2e4"/>
<path d="M10201 7746 c12 -10 60 -16 54 -6 -3 5 -18 10 -32 10 -15 0 -24 -2 -22 -4z" fill="#e9f2e4"/>
<path d="M10278 7703 c7 -3 16 -2 19 1 4 3 -2 6 -13 5 -11 0 -14 -3 -6 -6z" fill="#e9f2e4"/>
<path d="M8393 7611 c-51 -9 -96 -21 -100 -25 -4 -5 6 -6 22 -3 17 3 64 11 105 18 74 11 128 29 85 28 -11 -1 -61 -9 -112 -18z" fill="#e9f2e4"/>
<path d="M10319 7530 c-83 -58 -168 -129 -139 -114 22 12 230 165 230 170 0 8 -9 3 -91 -56z" fill="#e9f2e4"/>
<path d="M8375 7563 c-16 -3 -33 -8 -37 -12 -8 -7 178 5 197 13 13 6 -120 4 -160 -1z" fill="#e9f2e4"/>
<path d="M8443 7513 c15 -2 37 -2 50 0 12 2 0 4 -28 4 -27 0 -38 -2 -22 -4z" fill="#e9f2e4"/>
<path d="M10313 7481 c-32 -22 -68 -50 -78 -62 -20 -22 22 3 119 73 59 43 26 33 -41 -11z" fill="#e9f2e4"/>
<path d="M10375 7438 c-32 -23 -53 -44 -47 -46 11 -3 112 73 112 84 0 8 -7 4 -65 -38z" fill="#e9f2e4"/>
<path d="M10415 7390 c-3 -6 1 -7 9 -4 18 7 21 14 7 14 -6 0 -13 -4 -16 -10z" fill="#e9f2e4"/>
<path d="M10248 7320 c13 -10 30 -16 39 -13 12 5 11 8 -8 19 -38 21 -58 17 -31 -6z" fill="#e9f2e4"/>
<path d="M8621 7301 c12 -8 251 -83 439 -138 13 -4 13 -3 0 5 -8 5 -106 37 -216 71 -111 33 -210 63 -220 67 -16 5 -17 4 -3 -5z" fill="#e9f2e4"/>
<path d="M8759 7290 c50 -23 220 -74 227 -68 2 3 -50 21 -115 41 -163 50 -161 50 -112 27z" fill="#e9f2e4"/>
<path d="M8880 7286 c0 -7 102 -37 108 -32 2 3 -15 10 -38 16 -23 6 -48 14 -56 17 -8 3 -14 3 -14 -1z" fill="#e9f2e4"/>
<path d="M8786 7149 c2 -4 19 -10 37 -14 17 -4 40 -9 50 -11 9 -3 17 -1 17 4 0 5 -25 13 -54 19 -30 5 -53 6 -50 2z" fill="#e9f2e4"/>
<path d="M9082 7099 c5 -16 54 -36 65 -26 10 10 -8 25 -41 33 -22 5 -28 4 -24 -7z" fill="#e9f2e4"/>
<path d="M9650 7060 c-18 -6 -7 -8 40 -8 36 0 74 3 85 8 26 11 -90 11 -125 0z" fill="#e9f2e4"/>
<path d="M9345 7050 c74 -12 195 -12 195 0 0 6 -47 9 -122 9 -99 -1 -113 -3 -73 -9z" fill="#e9f2e4"/>
<path d="M8340 6895 c0 -10 50 -105 55 -105 2 0 0 11 -5 25 -21 55 -50 101 -50 80z" fill="#e9f2e4"/>
<path d="M8400 6849 c0 -8 7 -24 15 -35 18 -24 19 -7 0 26 -9 16 -14 19 -15 9z" fill="#e9f2e4"/>
<path d="M8801 6856 c14 -15 237 -37 419 -41 185 -4 188 -3 65 5 -230 16 -409 31 -450 37 -22 3 -37 3 -34 -1z" fill="#e9f2e4"/>
<path d="M10195 6840 c-27 -7 -27 -8 -5 -8 14 0 36 4 50 8 20 6 21 8 5 8 -11 0 -33 -4 -50 -8z" fill="#e9f2e4"/>
<path d="M8450 6824 c0 -13 18 -39 24 -34 2 3 -2 14 -10 24 -8 11 -14 16 -14 10z" fill="#e9f2e4"/>
<path d="M10065 6770 c-57 -10 -85 -18 -65 -19 35 -1 211 27 219 35 8 8 -54 1 -154 -16z" fill="#e9f2e4"/>
<path d="M10353 6758 c-37 -42 -37 -54 0 -19 21 19 37 36 37 38 0 10 -19 0 -37 -19z" fill="#e9f2e4"/>
<path d="M9326 6735 c-20 -15 -20 -15 0 -15 10 0 42 7 69 14 l50 14 -50 1 c-29 0 -58 -6 -69 -14z" fill="#e9f2e4"/>
<path d="M9913 6743 c9 -2 25 -2 35 0 9 3 1 5 -18 5 -19 0 -27 -2 -17 -5z" fill="#e9f2e4"/>
<path d="M9870 6710 c-112 -11 -153 -18 -114 -19 68 -1 260 16 314 29 34 8 34 8 5 8 -16 -1 -109 -9 -205 -18z" fill="#e9f2e4"/>
<path d="M10148 6683 c7 -3 16 -2 19 1 4 3 -2 6 -13 5 -11 0 -14 -3 -6 -6z" fill="#e9f2e4"/>
<path d="M10083 6673 c9 -2 25 -2 35 0 9 3 1 5 -18 5 -19 0 -27 -2 -17 -5z" fill="#e9f2e4"/>
<path d="M9998 6663 c12 -2 32 -2 45 0 12 2 2 4 -23 4 -25 0 -35 -2 -22 -4z" fill="#e9f2e4"/>
<path d="M9740 6649 c-216 -14 -231 -17 -50 -12 96 3 200 8 230 13 l55 7 -55 0 c-30 0 -111 -3 -180 -8z" fill="#e9f2e4"/>
<path d="M9565 6570 l-70 -6 70 -1 c39 -1 90 2 115 6 l45 8 -45 0 c-25 0 -76 -3 -115 -7z" fill="#e9f2e4"/>
<path d="M10028 6573 c7 -3 16 -2 19 1 4 3 -2 6 -13 5 -11 0 -14 -3 -6 -6z" fill="#e9f2e4"/>
<path d="M9943 6563 c9 -2 23 -2 30 0 6 3 -1 5 -18 5 -16 0 -22 -2 -12 -5z" fill="#e9f2e4"/>
<path d="M9828 6553 c12 -2 32 -2 45 0 12 2 2 4 -23 4 -25 0 -35 -2 -22 -4z" fill="#e9f2e4"/>
<path d="M9713 6543 c15 -2 39 -2 55 0 15 2 2 4 -28 4 -30 0 -43 -2 -27 -4z" fill="#e9f2e4"/>
<path d="M10148 6523 c6 -2 18 -2 25 0 6 3 1 5 -13 5 -14 0 -19 -2 -12 -5z" fill="#e9f2e4"/>
<path d="M9985 6505 c-129 -16 -422 -35 -572 -36 -65 0 -140 -4 -168 -9 -72 -11 -43 -11 267 0 256 9 504 30 588 50 52 12 5 10 -115 -5z" fill="#e9f2e4"/>
<path d="M10220 6435 c-19 -7 -28 -13 -20 -13 8 0 31 6 50 13 19 7 28 13 20 13 -8 0 -31 -6 -50 -13z" fill="#e9f2e4"/>
<path d="M9945 6429 c-33 -5 -67 -11 -75 -14 -28 -8 135 5 165 14 l30 9 -30 0 c-16 0 -57 -4 -90 -9z" fill="#e9f2e4"/>
<path d="M10135 6410 c-13 -5 -14 -9 -5 -9 8 0 24 4 35 9 13 5 14 9 5 9 -8 0 -24 -4 -35 -9z" fill="#e9f2e4"/>
<path d="M9548 6393 c23 -2 61 -2 85 0 23 2 4 4 -43 4 -47 0 -66 -2 -42 -4z" fill="#e9f2e4"/>
<path d="M10055 6389 c-70 -21 -277 -42 -525 -54 -202 -9 -236 -12 -145 -13 163 -2 440 15 553 34 90 15 193 42 162 42 -8 0 -28 -4 -45 -9z" fill="#e9f2e4"/>
<path d="M8670 6290 c6 -11 21 -20 33 -20 18 0 19 2 7 10 -13 9 -13 10 0 11 10 0 8 3 -5 9 -36 15 -47 12 -35 -10z" fill="#e9f2e4"/>
<path d="M9945 6295 c-38 -7 -137 -22 -218 -35 -81 -12 -146 -24 -144 -27 9 -9 377 46 442 66 43 13 4 11 -80 -4z" fill="#e9f2e4"/>
<path d="M10128 6284 c-4 -3 -57 -16 -120 -29 -62 -13 -103 -24 -92 -24 28 -1 201 34 234 48 22 9 23 10 4 10 -11 1 -23 -2 -26 -5z" fill="#e9f2e4"/>
<path d="M9660 6209 l-145 -18 105 5 c118 6 305 31 230 31 -25 0 -110 -8 -190 -18z" fill="#e9f2e4"/>
<path d="M9463 6183 c9 -2 25 -2 35 0 9 3 1 5 -18 5 -19 0 -27 -2 -17 -5z" fill="#e9f2e4"/>
<path d="M8666 6140 c13 -13 75 -29 114 -30 23 0 23 1 8 17 -20 20 -141 33 -122 13z" fill="#e9f2e4"/>
<path d="M8987 6090 c16 -17 113 -27 113 -11 0 6 -10 11 -22 11 -13 0 -41 3 -63 6 -32 5 -38 4 -28 -6z" fill="#e9f2e4"/>
<path d="M9260 6080 c0 -6 24 -10 57 -10 68 0 66 5 -4 14 -34 4 -53 3 -53 -4z" fill="#e9f2e4"/>
<path d="M9910 6000 c-12 -8 -10 -10 10 -10 14 0 32 5 40 10 12 8 10 10 -10 10 -14 0 -32 -5 -40 -10z" fill="#e9f2e4"/>
<path d="M9680 5985 c-193 -15 -176 -13 -164 -24 9 -10 248 1 318 14 38 8 61 26 29 24 -10 -1 -92 -7 -183 -14z" fill="#e9f2e4"/>
<path d="M9385 5960 c-4 -6 10 -10 34 -10 23 0 41 5 41 10 0 6 -15 10 -34 10 -19 0 -38 -4 -41 -10z" fill="#e9f2e4"/>
<path d="M8958 5949 c-6 -4 -1 -10 12 -14 26 -8 364 5 355 14 -9 8 -354 8 -367 0z" fill="#e9f2e4"/>
<path d="M9639 5143 c12 -23 29 -38 37 -31 2 3 -8 15 -22 29 -25 23 -26 23 -15 2z" fill="#e9f2e4"/>
<path d="M9534 5115 c-10 -8 -14 -15 -8 -15 5 0 19 7 30 15 10 8 14 15 8 15 -5 0 -19 -7 -30 -15z" fill="#e9f2e4"/>
<path d="M9254 5084 c-18 -15 -17 -15 16 -10 43 8 64 26 29 26 -14 0 -34 -7 -45 -16z" fill="#e9f2e4"/>
<path d="M9715 5092 c6 -5 32 -12 60 -16 29 -4 45 -3 40 3 -6 5 -32 12 -60 16 -32 4 -46 3 -40 -3z" fill="#e9f2e4"/>
<path d="M8801 5067 c2 -2 18 -11 34 -21 l30 -17 -24 20 c-13 12 -28 21 -34 21 -6 0 -8 -1 -6 -3z" fill="#e9f2e4"/>
<path d="M9000 5061 c0 -6 15 -18 33 -27 30 -16 31 -16 18 0 -19 23 -51 40 -51 27z" fill="#e9f2e4"/>
<path d="M8910 5040 c-24 -15 -7 -19 20 -5 15 8 19 14 10 14 -8 1 -22 -3 -30 -9z" fill="#e9f2e4"/>
<path d="M9656 5031 c-3 -5 14 -11 38 -13 35 -2 42 0 34 9 -12 15 -64 17 -72 4z" fill="#e9f2e4"/>
<path d="M9093 5013 c9 -2 23 -2 30 0 6 3 -1 5 -18 5 -16 0 -22 -2 -12 -5z" fill="#e9f2e4"/>
<path d="M9437 5003 c-7 -10 29 -50 37 -42 3 2 -3 15 -13 28 -10 13 -21 19 -24 14z" fill="#e9f2e4"/>
<path d="M8899 4976 c27 -29 77 -46 131 -45 67 1 69 14 2 14 -59 0 -75 4 -113 29 l-44 29 24 -27z" fill="#e9f2e4"/>
<path d="M9545 4970 c-17 -7 -15 -9 12 -9 17 -1 35 4 38 9 7 12 -22 12 -50 0z" fill="#e9f2e4"/>
<path d="M9236 4935 c-14 -13 -26 -30 -26 -36 0 -7 16 2 35 21 19 19 35 35 35 37 0 10 -21 0 -44 -22z" fill="#e9f2e4"/>
<path d="M9767 4915 c9 -19 18 -33 21 -31 4 5 -26 66 -33 66 -3 0 3 -16 12 -35z" fill="#e9f2e4"/>
<path d="M9294 4925 c-10 -8 -14 -15 -8 -15 6 0 17 7 24 15 16 19 9 19 -16 0z" fill="#e9f2e4"/>
<path d="M9720 4934 c0 -8 51 -94 56 -94 2 0 -7 23 -21 50 -23 45 -35 60 -35 44z" fill="#e9f2e4"/>
<path d="M8796 4882 c-12 -38 8 -331 22 -318 8 9 2 294 -7 319 l-8 22 -7 -23z" fill="#e9f2e4"/>
<path d="M9720 4861 c0 -5 5 -13 10 -16 6 -3 10 -2 10 4 0 5 -4 13 -10 16 -5 3 -10 2 -10 -4z" fill="#e9f2e4"/>
<path d="M9510 4800 c0 -5 5 -10 10 -10 6 0 10 5 10 10 0 6 -4 10 -10 10 -5 0 -10 -4 -10 -10z" fill="#e9f2e4"/>
<path d="M8850 4720 c0 -30 5 -62 10 -70 7 -11 10 1 10 40 0 30 -5 62 -10 70 -7 11 -10 -1 -10 -40z" fill="#e9f2e4"/>
<path d="M8716 4733 c-3 -16 -17 -163 -31 -327 -14 -164 -27 -308 -30 -320 -2 -12 -23 -99 -45 -194 -23 -96 -39 -176 -36 -180 20 -20 83 262 120 540 32 239 48 607 22 481z" fill="#e9f2e4"/>
<path d="M9623 4744 c-8 -20 13 -42 27 -28 12 12 3 44 -11 44 -5 0 -12 -7 -16 -16z" fill="#e9f2e4"/>
<path d="M8912 4715 c0 -16 2 -22 5 -12 2 9 2 23 0 30 -3 6 -5 -1 -5 -18z" fill="#e9f2e4"/>
<path d="M9280 4704 c0 -8 5 -12 10 -9 6 3 10 10 10 16 0 5 -4 9 -10 9 -5 0 -10 -7 -10 -16z" fill="#e9f2e4"/>
<path d="M9195 4650 c-3 -6 1 -7 9 -4 18 7 21 14 7 14 -6 0 -13 -4 -16 -10z" fill="#e9f2e4"/>
<path d="M9666 4631 c-3 -5 0 -14 8 -20 10 -8 16 -8 25 2 6 8 8 17 4 20 -9 10 -31 9 -37 -2z" fill="#e9f2e4"/>
<path d="M8971 4456 c-14 -17 -7 -36 15 -36 15 0 18 18 5 38 -6 10 -10 10 -20 -2z" fill="#e9f2e4"/>
<path d="M9827 4423 c4 -21 10 -49 14 -63 7 -24 7 -24 8 6 1 42 -10 94 -20 94 -4 0 -5 -17 -2 -37z" fill="#e9f2e4"/>
<path d="M8860 4270 c-20 -12 -5 -24 16 -12 9 5 12 12 7 15 -5 3 -15 2 -23 -3z" fill="#e9f2e4"/>
<path d="M9477 4148 c-36 -40 -63 -75 -61 -77 6 -6 89 75 116 112 40 56 9 36 -55 -35z" fill="#e9f2e4"/>
<path d="M9425 4160 c-10 -11 -13 -20 -7 -20 6 0 16 9 22 20 6 11 9 20 7 20 -2 0 -12 -9 -22 -20z" fill="#e9f2e4"/>
<path d="M9883 4127 c3 -9 11 -35 17 -59 21 -79 82 -261 137 -413 30 -82 70 -206 88 -275 43 -160 54 -189 64 -171 12 19 -25 150 -102 366 -35 99 -92 264 -126 367 -35 103 -68 191 -73 195 -7 4 -9 0 -5 -10z" fill="#e9f2e4"/>
<path d="M8916 4075 c-9 -26 -7 -35 8 -35 23 0 30 20 14 37 -14 13 -16 13 -22 -2z" fill="#e9f2e4"/>
<path d="M8771 4004 c0 -11 3 -14 6 -6 3 7 2 16 -1 19 -3 4 -6 -2 -5 -13z" fill="#e9f2e4"/>
<path d="M8731 3994 c0 -11 3 -14 6 -6 3 7 2 16 -1 19 -3 4 -6 -2 -5 -13z" fill="#e9f2e4"/>
<path d="M9620 3974 c0 -8 5 -12 10 -9 6 3 10 10 10 16 0 5 -4 9 -10 9 -5 0 -10 -7 -10 -16z" fill="#e9f2e4"/>
<path d="M8721 3944 c0 -11 3 -14 6 -6 3 7 2 16 -1 19 -3 4 -6 -2 -5 -13z" fill="#e9f2e4"/>
<path d="M9826 3841 c-4 -5 -2 -12 3 -15 5 -4 12 -2 15 3 4 5 2 12 -3 15 -5 4 -12 2 -15 -3z" fill="#e9f2e4"/>
<path d="M9484 3779 c-8 -14 21 -43 35 -35 19 12 13 46 -8 46 -11 0 -23 -5 -27 -11z" fill="#e9f2e4"/>
<path d="M8937 3764 c-4 -4 -4 -10 -1 -15 6 -10 34 0 34 12 0 10 -24 12 -33 3z" fill="#e9f2e4"/>
<path d="M9320 3765 c0 -12 32 -67 36 -62 7 6 -13 54 -25 62 -6 3 -11 3 -11 0z" fill="#e9f2e4"/>
<path d="M9390 3701 c0 -5 5 -13 10 -16 6 -3 10 -2 10 4 0 5 -4 13 -10 16 -5 3 -10 2 -10 -4z" fill="#e9f2e4"/>
<path d="M9722 3699 c2 -6 8 -10 13 -10 5 0 11 4 13 10 2 6 -4 11 -13 11 -9 0 -15 -5 -13 -11z" fill="#e9f2e4"/>
<path d="M8483 3398 c-89 -316 -126 -457 -168 -641 -31 -131 -30 -200 1 -292 24 -71 120 -162 226 -215 79 -39 185 -76 194 -67 2 2 -27 18 -65 35 -87 38 -180 100 -253 170 -65 62 -85 109 -94 217 -6 74 -2 93 195 848 82 311 55 271 -36 -55z" fill="#e9f2e4"/>
<path d="M9864 3590 c4 -36 45 -154 52 -148 2 2 -10 44 -26 93 -17 50 -28 74 -26 55z" fill="#e9f2e4"/>
<path d="M9861 3506 c7 -15 15 -23 17 -16 3 7 -3 19 -13 28 -15 16 -16 15 -4 -12z" fill="#e9f2e4"/>
<path d="M9317 3432 c-10 -10 -17 -22 -17 -25 0 -14 38 -6 51 10 12 15 12 16 -3 10 -12 -4 -15 -2 -11 9 7 19 -1 18 -20 -4z" fill="#e9f2e4"/>
<path d="M9117 3416 c-7 -19 11 -32 24 -19 6 6 5 14 -4 22 -12 9 -16 8 -20 -3z" fill="#e9f2e4"/>
<path d="M8990 3400 c0 -5 5 -10 10 -10 6 0 10 5 10 10 0 6 -4 10 -10 10 -5 0 -10 -4 -10 -10z" fill="#e9f2e4"/>
<path d="M8577 3373 c-7 -10 -24 -115 -31 -188 -8 -76 9 -24 28 89 16 91 16 121 3 99z" fill="#e9f2e4"/>
<path d="M9000 3324 c0 -8 5 -12 10 -9 6 4 8 11 5 16 -9 14 -15 11 -15 -7z" fill="#e9f2e4"/>
<path d="M8834 3289 c-11 -18 11 -32 25 -16 9 12 8 16 -3 20 -9 4 -18 1 -22 -4z" fill="#e9f2e4"/>
<path d="M9176 3261 c-9 -14 4 -41 19 -41 17 0 38 27 30 40 -8 12 -42 13 -49 1z" fill="#e9f2e4"/>
<path d="M8591 3208 c0 -33 2 -38 9 -23 12 28 12 65 0 65 -5 0 -10 -19 -9 -42z" fill="#e9f2e4"/>
<path d="M8962 3199 c2 -6 8 -10 13 -10 5 0 11 4 13 10 2 6 -4 11 -13 11 -9 0 -15 -5 -13 -11z" fill="#e9f2e4"/>
<path d="M9655 3170 c-3 -5 1 -10 10 -10 9 0 13 5 10 10 -3 6 -8 10 -10 10 -2 0 -7 -4 -10 -10z" fill="#e9f2e4"/>
<path d="M10217 2915 c-4 -99 -9 -191 -12 -205 -5 -19 -4 -21 4 -9 24 37 39 268 22 354 -5 28 -9 -15 -14 -140z" fill="#e9f2e4"/>
<path d="M8980 2996 c0 -11 65 -99 87 -117 15 -12 15 -11 -1 17 -23 39 -85 112 -86 100z" fill="#e9f2e4"/>
<path d="M8940 2952 c0 -5 10 -17 22 -28 l21 -19 -18 28 c-18 28 -25 33 -25 19z" fill="#e9f2e4"/>
<path d="M8899 2926 c14 -14 27 -26 29 -26 10 0 -26 44 -39 48 -8 3 -3 -7 10 -22z" fill="#e9f2e4"/>
<path d="M9824 2915 c-9 -23 3 -45 25 -45 10 0 21 7 25 15 8 23 -4 45 -25 45 -11 0 -22 -7 -25 -15z" fill="#e9f2e4"/>
<path d="M8644 2865 c-9 -23 10 -40 25 -22 9 11 8 17 -4 27 -12 10 -16 9 -21 -5z" fill="#e9f2e4"/>
<path d="M9955 2709 c-8 -24 9 -41 32 -32 16 6 17 25 1 41 -17 17 -26 15 -33 -9z" fill="#e9f2e4"/>
<path d="M8472 2648 c2 -15 11 -24 26 -26 20 -3 23 0 20 20 -2 15 -11 24 -26 26 -20 3 -23 0 -20 -20z" fill="#e9f2e4"/>
<path d="M9285 2661 c-7 -12 12 -24 25 -16 11 7 4 25 -10 25 -5 0 -11 -4 -15 -9z" fill="#e9f2e4"/>
<path d="M9806 2662 c-3 -6 -1 -14 5 -17 15 -10 25 3 12 16 -7 7 -13 7 -17 1z" fill="#e9f2e4"/>
<path d="M8665 2648 c-9 -22 4 -43 17 -30 7 7 7 16 0 29 -10 17 -11 17 -17 1z" fill="#e9f2e4"/>
<path d="M9615 2600 c-11 -17 5 -32 21 -19 7 6 11 15 8 20 -7 12 -21 11 -29 -1z" fill="#e9f2e4"/>
<path d="M10116 2522 c-75 -98 -171 -178 -271 -228 -78 -39 -116 -50 -290 -84 -233 -47 -268 -58 -178 -59 65 -1 350 66 464 109 73 27 187 107 232 162 44 54 101 147 94 154 -3 3 -25 -22 -51 -54z" fill="#e9f2e4"/>
<path d="M9930 2473 l-75 -77 75 69 c68 64 88 85 78 85 -2 0 -37 -35 -78 -77z" fill="#e9f2e4"/>
<path d="M8384 2513 c16 -30 71 -105 65 -88 -10 26 -65 115 -72 115 -4 0 -1 -12 7 -27z" fill="#e9f2e4"/>
<path d="M9887 2492 c-45 -46 -50 -68 -6 -26 28 26 55 64 46 64 -1 0 -20 -17 -40 -38z" fill="#e9f2e4"/>
<path d="M8430 2515 c0 -5 9 -21 20 -35 11 -14 20 -20 20 -15 0 6 -9 21 -20 35 -11 14 -20 21 -20 15z" fill="#e9f2e4"/>
<path d="M10008 2503 c-8 -10 -19 -25 -23 -33 -8 -13 -7 -13 9 -1 16 14 41 51 33 51 -2 0 -11 -8 -19 -17z" fill="#e9f2e4"/>
<path d="M9235 2340 c-8 -13 15 -13 35 0 12 8 11 10 -7 10 -12 0 -25 -4 -28 -10z" fill="#e9f2e4"/>
<path d="M9183 2303 c15 -2 37 -2 50 0 12 2 0 4 -28 4 -27 0 -38 -2 -22 -4z" fill="#e9f2e4"/>
<path d="M9047 2259 c7 -7 39 -8 104 -1 l94 9 -104 2 c-75 1 -102 -2 -94 -10z" fill="#e9f2e4"/>
<path d="M8850 2160 c0 -5 13 -10 29 -10 17 0 33 5 36 10 4 6 -8 10 -29 10 -20 0 -36 -4 -36 -10z" fill="#e9f2e4"/>
<path d="M9068 2153 c12 -2 30 -2 40 0 9 3 -1 5 -23 4 -22 0 -30 -2 -17 -4z" fill="#e9f2e4"/>
<path d="M8150 2076 c0 -3 14 -12 30 -21 17 -9 30 -13 30 -11 0 3 -13 12 -30 21 -16 9 -30 13 -30 11z" fill="#e9f2e4"/>
<path d="M8270 1975 c80 -41 150 -74 155 -74 6 0 -55 33 -135 74 -80 41 -149 74 -155 74 -5 0 55 -33 135 -74z" fill="#e9f2e4"/>
<path d="M8080 2019 c0 -19 363 -180 376 -166 3 2 -35 19 -83 37 -49 18 -134 56 -190 85 -57 28 -103 48 -103 44z" fill="#e9f2e4"/>
<path d="M10250 1995 c-25 -13 -41 -24 -37 -25 11 0 87 39 87 45 0 7 0 7 -50 -20z" fill="#e9f2e4"/>
<path d="M10255 1970 c-38 -22 -66 -40 -62 -40 13 0 125 59 132 70 9 14 7 14 -70 -30z" fill="#e9f2e4"/>
<path d="M10250 1910 c-85 -43 -151 -79 -147 -79 10 -1 289 138 302 150 16 15 5 10 -155 -71z" fill="#e9f2e4"/>
<path d="M8156 1931 c11 -11 84 -42 84 -36 0 6 -76 45 -87 45 -4 0 -3 -4 3 -9z" fill="#e9f2e4"/>
<path d="M8839 1926 c8 -9 25 -16 39 -16 32 0 18 15 -22 24 -26 6 -28 5 -17 -8z" fill="#e9f2e4"/>
<path d="M8140 1915 c0 -6 96 -55 107 -55 10 0 -89 60 -99 60 -5 0 -8 -2 -8 -5z" fill="#e9f2e4"/>
<path d="M8966 1912 c-9 -15 118 -24 184 -13 l55 9 -80 1 c-44 1 -96 4 -116 7 -21 4 -39 2 -43 -4z" fill="#e9f2e4"/>
<path d="M9313 1903 c9 -2 25 -2 35 0 9 3 1 5 -18 5 -19 0 -27 -2 -17 -5z" fill="#e9f2e4"/>
<path d="M8450 1890 c8 -5 20 -10 25 -10 6 0 3 5 -5 10 -8 5 -19 10 -25 10 -5 0 -3 -5 5 -10z" fill="#e9f2e4"/>
<path d="M10253 1863 c-35 -15 -61 -28 -59 -30 4 -4 105 33 126 47 27 17 -3 10 -67 -17z" fill="#e9f2e4"/>
<path d="M10250 1825 c-122 -63 -126 -73 -6 -16 70 33 132 71 116 70 -3 0 -52 -24 -110 -54z" fill="#e9f2e4"/>
<path d="M8850 1853 c170 -20 370 -38 370 -33 0 7 -340 41 -380 39 -17 -2 -14 -3 10 -6z" fill="#e9f2e4"/>
<path d="M8496 1835 c17 -7 44 -16 60 -20 25 -4 24 -3 -6 8 -19 8 -46 17 -60 20 -19 5 -17 3 6 -8z" fill="#e9f2e4"/>
<path d="M8820 1821 c35 -11 140 -22 115 -12 -11 5 -47 11 -80 14 -36 4 -50 3 -35 -2z" fill="#e9f2e4"/>
<path d="M9935 1608 c-87 -34 -91 -36 -83 -43 8 -8 171 45 188 61 24 23 -15 17 -105 -18z" fill="#e9f2e4"/>
<path d="M9558 1603 c-21 -2 -38 -8 -38 -12 0 -9 77 2 87 13 4 3 2 5 -3 4 -5 -1 -26 -3 -46 -5z" fill="#e9f2e4"/>
<path d="M9660 1594 c-41 -7 -106 -18 -143 -25 -38 -6 -66 -13 -64 -16 5 -4 329 46 336 53 8 7 -54 2 -129 -12z" fill="#e9f2e4"/>
<path d="M9113 1573 c9 -2 23 -2 30 0 6 3 -1 5 -18 5 -16 0 -22 -2 -12 -5z" fill="#e9f2e4"/>
<path d="M9745 1559 c-68 -10 -109 -25 -126 -45 -16 -19 20 -19 86 1 28 9 67 20 88 26 20 5 37 14 37 19 0 11 -1 11 -85 -1z" fill="#e9f2e4"/>
<path d="M10225 1509 c-60 -21 -94 -36 -75 -33 38 7 200 63 200 70 0 7 -12 3 -125 -37z" fill="#e9f2e4"/>
<path d="M8945 1490 c41 -10 126 -10 150 0 13 6 -16 8 -80 8 -66 0 -90 -3 -70 -8z" fill="#e9f2e4"/>
<path d="M9215 1490 c63 -10 181 -10 220 0 18 4 -32 8 -120 7 -108 0 -136 -2 -100 -7z" fill="#e9f2e4"/>
<path d="M8558 1433 c7 -3 16 -2 19 1 4 3 -2 6 -13 5 -11 0 -14 -3 -6 -6z" fill="#e9f2e4"/>
<path d="M8618 1423 c7 -3 16 -2 19 1 4 3 -2 6 -13 5 -11 0 -14 -3 -6 -6z" fill="#e9f2e4"/>
<path d="M8678 1413 c6 -2 18 -2 25 0 6 3 1 5 -13 5 -14 0 -19 -2 -12 -5z" fill="#e9f2e4"/>
<path d="M8738 1403 c6 -2 18 -2 25 0 6 3 1 5 -13 5 -14 0 -19 -2 -12 -5z" fill="#e9f2e4"/>
<path d="M8798 1393 c6 -2 18 -2 25 0 6 3 1 5 -13 5 -14 0 -19 -2 -12 -5z" fill="#e9f2e4"/>
<path d="M8175 1380 c11 -5 27 -9 35 -9 9 0 8 4 -5 9 -11 5 -27 9 -35 9 -9 0 -8 -4 5 -9z" fill="#e9f2e4"/>
<path d="M8895 1377 c56 -12 74 -13 64 -3 -2 2 -31 7 -64 10 l-60 5 60 -12z" fill="#e9f2e4"/>
<path d="M10018 1383 c7 -3 16 -2 19 1 4 3 -2 6 -13 5 -11 0 -14 -3 -6 -6z" fill="#e9f2e4"/>
<path d="M10133 1347 c-73 -22 -131 -43 -128 -45 5 -5 243 66 265 79 27 16 -4 8 -137 -34z" fill="#e9f2e4"/>
<path d="M9978 1373 c7 -3 16 -2 19 1 4 3 -2 6 -13 5 -11 0 -14 -3 -6 -6z" fill="#e9f2e4"/>
<path d="M9218 1363 c28 -2 76 -2 105 0 28 2 5 3 -53 3 -58 0 -81 -1 -52 -3z" fill="#e9f2e4"/>
<path d="M9938 1363 c7 -3 16 -2 19 1 4 3 -2 6 -13 5 -11 0 -14 -3 -6 -6z" fill="#e9f2e4"/>
<path d="M9888 1353 c7 -3 16 -2 19 1 4 3 -2 6 -13 5 -11 0 -14 -3 -6 -6z" fill="#e9f2e4"/>
<path d="M9838 1343 c7 -3 16 -2 19 1 4 3 -2 6 -13 5 -11 0 -14 -3 -6 -6z" fill="#e9f2e4"/>
<path d="M9788 1333 c6 -2 18 -2 25 0 6 3 1 5 -13 5 -14 0 -19 -2 -12 -5z" fill="#e9f2e4"/>
<path d="M8195 1320 c27 -12 43 -12 25 0 -8 5 -22 9 -30 9 -10 0 -8 -3 5 -9z" fill="#e9f2e4"/>
<path d="M8985 1320 c40 -9 112 -13 104 -6 -2 2 -35 6 -74 9 -54 4 -61 4 -30 -3z" fill="#e9f2e4"/>
<path d="M9728 1323 c6 -2 18 -2 25 0 6 3 1 5 -13 5 -14 0 -19 -2 -12 -5z" fill="#e9f2e4"/>
<path d="M9663 1313 c9 -2 23 -2 30 0 6 3 -1 5 -18 5 -16 0 -22 -2 -12 -5z" fill="#e9f2e4"/>
<path d="M8180 1304 c0 -6 164 -84 176 -84 10 1 -93 55 -143 77 -18 7 -33 11 -33 7z" fill="#e9f2e4"/>
<path d="M8250 1300 c8 -5 22 -9 30 -9 10 0 8 3 -5 9 -27 12 -43 12 -25 0z" fill="#e9f2e4"/>
<path d="M9108 1303 c6 -2 18 -2 25 0 6 3 1 5 -13 5 -14 0 -19 -2 -12 -5z" fill="#e9f2e4"/>
<path d="M9608 1303 c7 -3 16 -2 19 1 4 3 -2 6 -13 5 -11 0 -14 -3 -6 -6z" fill="#e9f2e4"/>
<path d="M8918 1283 c6 -2 18 -2 25 0 6 3 1 5 -13 5 -14 0 -19 -2 -12 -5z" fill="#e9f2e4"/>
<path d="M8085 1270 c6 -9 136 -62 141 -57 2 2 -30 17 -71 34 -41 17 -73 27 -70 23z" fill="#e9f2e4"/>
<path d="M8968 1273 c7 -3 16 -2 19 1 4 3 -2 6 -13 5 -11 0 -14 -3 -6 -6z" fill="#e9f2e4"/>
<path d="M8091 1216 c10 -9 209 -106 209 -101 0 5 -196 105 -206 105 -4 0 -5 -2 -3 -4z" fill="#e9f2e4"/>
<path d="M8265 1195 c17 -8 37 -14 45 -14 8 0 -1 7 -20 14 -46 18 -64 17 -25 0z" fill="#e9f2e4"/>
<path d="M8120 1165 c0 -7 61 -37 66 -33 2 3 -12 12 -31 21 -19 9 -35 15 -35 12z" fill="#e9f2e4"/>
<path d="M8375 1160 c11 -5 27 -9 35 -9 9 0 8 4 -5 9 -11 5 -27 9 -35 9 -9 0 -8 -4 5 -9z" fill="#e9f2e4"/>
<path d="M8438 1143 c7 -3 16 -2 19 1 4 3 -2 6 -13 5 -11 0 -14 -3 -6 -6z" fill="#e9f2e4"/>
<path d="M8471 1136 c15 -14 334 -86 376 -85 29 1 1 8 -235 60 -135 30 -148 32 -141 25z" fill="#e9f2e4"/>
<path d="M9808 1133 c6 -2 18 -2 25 0 6 3 1 5 -13 5 -14 0 -19 -2 -12 -5z" fill="#e9f2e4"/>
<path d="M9723 1123 c9 -2 25 -2 35 0 9 3 1 5 -18 5 -19 0 -27 -2 -17 -5z" fill="#e9f2e4"/>
<path d="M9474 915 c15 -8 45 -15 65 -14 36 1 35 1 -14 15 -65 18 -87 18 -51 -1z" fill="#e9f2e4"/>
<path d="M9668 883 c12 -2 30 -2 40 0 9 3 -1 5 -23 4 -22 0 -30 -2 -17 -4z" fill="#e9f2e4"/>
<path d="M9258 853 c34 -2 88 -2 120 0 31 2 3 3 -63 3 -66 0 -92 -1 -57 -3z" fill="#e9f2e4"/>
</g>
</svg>